{
	"patcher" : 	{
		"fileversion" : 1,
		"appversion" : 		{
			"major" : 7,
			"minor" : 0,
			"revision" : 1,
			"architecture" : "x64",
			"modernui" : 1
		}
,
		"rect" : [ 130.0, 79.0, 1074.0, 713.0 ],
		"bglocked" : 0,
		"openinpresentation" : 0,
		"default_fontsize" : 12.0,
		"default_fontface" : 0,
		"default_fontname" : "Arial",
		"gridonopen" : 1,
		"gridsize" : [ 15.0, 15.0 ],
		"gridsnaponopen" : 1,
		"objectsnaponopen" : 1,
		"statusbarvisible" : 2,
		"toolbarvisible" : 1,
		"lefttoolbarpinned" : 0,
		"toptoolbarpinned" : 0,
		"righttoolbarpinned" : 0,
		"bottomtoolbarpinned" : 0,
		"toolbars_unpinned_last_save" : 0,
		"tallnewobj" : 0,
		"boxanimatetime" : 200,
		"enablehscroll" : 1,
		"enablevscroll" : 1,
		"devicewidth" : 0.0,
		"description" : "",
		"digest" : "",
		"tags" : "",
		"style" : "",
		"subpatcher_template" : "",
		"boxes" : [ 			{
				"box" : 				{
					"id" : "obj-59",
					"maxclass" : "toggle",
					"numinlets" : 1,
					"numoutlets" : 1,
					"outlettype" : [ "int" ],
					"parameter_enable" : 0,
					"patching_rect" : [ 196.0, 348.0, 24.0, 24.0 ],
					"style" : ""
				}

			}
, 			{
				"box" : 				{
					"id" : "obj-50",
					"maxclass" : "toggle",
					"numinlets" : 1,
					"numoutlets" : 1,
					"outlettype" : [ "int" ],
					"parameter_enable" : 0,
					"patching_rect" : [ 245.5, 348.0, 24.0, 24.0 ],
					"style" : ""
				}

			}
, 			{
				"box" : 				{
					"id" : "obj-52",
					"maxclass" : "message",
					"numinlets" : 2,
					"numoutlets" : 1,
					"outlettype" : [ "" ],
					"patching_rect" : [ 242.75, 380.799988, 29.5, 22.0 ],
					"style" : "",
					"text" : "0"
				}

			}
, 			{
				"box" : 				{
					"id" : "obj-53",
					"maxclass" : "message",
					"numinlets" : 2,
					"numoutlets" : 1,
					"outlettype" : [ "" ],
					"patching_rect" : [ 216.0, 421.600006, 109.0, 22.0 ],
					"style" : "",
					"text" : "open kickmyo.wav"
				}

			}
, 			{
				"box" : 				{
					"fontface" : 0,
					"fontsize" : 12.0,
					"id" : "obj-54",
					"maxclass" : "live.gain~",
					"numinlets" : 2,
					"numoutlets" : 5,
					"outlettype" : [ "signal", "signal", "", "float", "list" ],
					"parameter_enable" : 1,
					"patching_rect" : [ 196.0, 507.799988, 54.0, 136.0 ],
					"saved_attribute_attributes" : 					{
						"valueof" : 						{
							"parameter_longname" : "live.gain~[1]",
							"parameter_shortname" : "live.gain~",
							"parameter_type" : 0,
							"parameter_mmin" : -70.0,
							"parameter_mmax" : 6.0,
							"parameter_initial_enable" : 1,
							"parameter_initial" : [ -70 ],
							"parameter_unitstyle" : 4
						}

					}
,
					"showname" : 0,
					"varname" : "live.gain~[1]"
				}

			}
, 			{
				"box" : 				{
					"id" : "obj-55",
					"maxclass" : "newobj",
					"numinlets" : 2,
					"numoutlets" : 3,
					"outlettype" : [ "signal", "signal", "bang" ],
					"patching_rect" : [ 204.0, 469.0, 59.0, 22.0 ],
					"saved_object_attributes" : 					{
						"basictuning" : 440,
						"followglobaltempo" : 0,
						"formantcorrection" : 0,
						"mode" : "basic",
						"originallength" : [ 1920.0, "ticks" ],
						"originaltempo" : 120.0,
						"pitchcorrection" : 0,
						"quality" : "basic",
						"timestretch" : [ 0 ]
					}
,
					"style" : "",
					"text" : "sfplay~ 2"
				}

			}
, 			{
				"box" : 				{
					"id" : "obj-56",
					"maxclass" : "button",
					"numinlets" : 1,
					"numoutlets" : 1,
					"outlettype" : [ "bang" ],
					"patching_rect" : [ 289.299988, 473.200012, 24.0, 24.0 ],
					"style" : ""
				}

			}
, 			{
				"box" : 				{
					"id" : "obj-49",
					"maxclass" : "toggle",
					"numinlets" : 1,
					"numoutlets" : 1,
					"outlettype" : [ "int" ],
					"parameter_enable" : 0,
					"patching_rect" : [ 64.0, 348.0, 24.0, 24.0 ],
					"style" : ""
				}

			}
, 			{
				"box" : 				{
					"id" : "obj-48",
					"maxclass" : "message",
					"numinlets" : 2,
					"numoutlets" : 1,
					"outlettype" : [ "" ],
					"patching_rect" : [ 61.25, 380.799988, 29.5, 22.0 ],
					"style" : "",
					"text" : "0"
				}

			}
, 			{
				"box" : 				{
					"id" : "obj-47",
					"maxclass" : "newobj",
					"numinlets" : 1,
					"numoutlets" : 1,
					"outlettype" : [ "bang" ],
					"patching_rect" : [ 64.0, 24.0, 60.0, 22.0 ],
					"style" : "",
					"text" : "loadbang"
				}

			}
, 			{
				"box" : 				{
					"id" : "obj-46",
					"maxclass" : "message",
					"numinlets" : 2,
					"numoutlets" : 1,
					"outlettype" : [ "" ],
					"patching_rect" : [ 34.5, 421.600006, 118.0, 22.0 ],
					"style" : "",
					"text" : "open snaremyo.wav"
				}

			}
, 			{
				"box" : 				{
					"fontface" : 0,
					"fontsize" : 12.0,
					"id" : "obj-45",
					"maxclass" : "live.gain~",
					"numinlets" : 2,
					"numoutlets" : 5,
					"outlettype" : [ "signal", "signal", "", "float", "list" ],
					"parameter_enable" : 1,
					"patching_rect" : [ 14.5, 515.799988, 54.0, 136.0 ],
					"saved_attribute_attributes" : 					{
						"valueof" : 						{
							"parameter_longname" : "live.gain~",
							"parameter_shortname" : "live.gain~",
							"parameter_type" : 0,
							"parameter_mmin" : -70.0,
							"parameter_mmax" : 6.0,
							"parameter_initial_enable" : 1,
							"parameter_initial" : [ -70 ],
							"parameter_unitstyle" : 4
						}

					}
,
					"showname" : 0,
					"varname" : "live.gain~"
				}

			}
, 			{
				"box" : 				{
					"id" : "obj-43",
					"maxclass" : "toggle",
					"numinlets" : 1,
					"numoutlets" : 1,
					"outlettype" : [ "int" ],
					"parameter_enable" : 0,
					"patching_rect" : [ 113.0, 666.0, 24.0, 24.0 ],
					"style" : ""
				}

			}
, 			{
				"box" : 				{
					"id" : "obj-42",
					"maxclass" : "newobj",
					"numinlets" : 2,
					"numoutlets" : 0,
					"patching_rect" : [ 209.5, 666.0, 57.0, 22.0 ],
					"style" : "",
					"text" : "dac~ 1 2"
				}

			}
, 			{
				"box" : 				{
					"id" : "obj-41",
					"maxclass" : "newobj",
					"numinlets" : 2,
					"numoutlets" : 3,
					"outlettype" : [ "signal", "signal", "bang" ],
					"patching_rect" : [ 22.5, 469.0, 59.0, 22.0 ],
					"saved_object_attributes" : 					{
						"basictuning" : 440,
						"followglobaltempo" : 0,
						"formantcorrection" : 0,
						"mode" : "basic",
						"originallength" : [ 1920.0, "ticks" ],
						"originaltempo" : 120.0,
						"pitchcorrection" : 0,
						"quality" : "basic",
						"timestretch" : [ 0 ]
					}
,
					"style" : "",
					"text" : "sfplay~ 2"
				}

			}
, 			{
				"box" : 				{
					"id" : "obj-40",
					"maxclass" : "comment",
					"numinlets" : 1,
					"numoutlets" : 0,
					"patching_rect" : [ 196.0, 272.0, 22.0, 20.0 ],
					"style" : "",
					"text" : "y"
				}

			}
, 			{
				"box" : 				{
					"id" : "obj-39",
					"maxclass" : "comment",
					"numinlets" : 1,
					"numoutlets" : 0,
					"patching_rect" : [ 23.0, 272.0, 150.0, 20.0 ],
					"style" : "",
					"text" : "x"
				}

			}
, 			{
				"box" : 				{
					"id" : "obj-38",
					"maxclass" : "newobj",
					"numinlets" : 1,
					"numoutlets" : 2,
					"outlettype" : [ "", "" ],
					"patching_rect" : [ 196.0, 305.0, 169.0, 22.0 ],
					"style" : "",
					"text" : "if $f1 >= 0.85 then 1 else out2"
				}

			}
, 			{
				"box" : 				{
					"id" : "obj-31",
					"maxclass" : "button",
					"numinlets" : 1,
					"numoutlets" : 1,
					"outlettype" : [ "bang" ],
					"patching_rect" : [ 107.800003, 473.200012, 24.0, 24.0 ],
					"style" : ""
				}

			}
, 			{
				"box" : 				{
					"id" : "obj-29",
					"maxclass" : "message",
					"numinlets" : 2,
					"numoutlets" : 1,
					"outlettype" : [ "" ],
					"patching_rect" : [ 118.0, 340.0, 50.0, 22.0 ],
					"style" : "",
					"text" : "1"
				}

			}
, 			{
				"box" : 				{
					"id" : "obj-27",
					"maxclass" : "newobj",
					"numinlets" : 3,
					"numoutlets" : 1,
					"outlettype" : [ "float" ],
					"patching_rect" : [ 74.0, 267.0, 69.0, 22.0 ],
					"style" : "",
					"text" : "slide 0 100"
				}

			}
, 			{
				"box" : 				{
					"id" : "obj-26",
					"maxclass" : "toggle",
					"numinlets" : 1,
					"numoutlets" : 1,
					"outlettype" : [ "int" ],
					"parameter_enable" : 0,
					"patching_rect" : [ 14.5, 358.399994, 24.0, 24.0 ],
					"style" : ""
				}

			}
, 			{
				"box" : 				{
					"id" : "obj-18",
					"maxclass" : "newobj",
					"numinlets" : 1,
					"numoutlets" : 2,
					"outlettype" : [ "", "" ],
					"patching_rect" : [ 23.0, 301.0, 156.0, 22.0 ],
					"style" : "",
					"text" : "if $f1 > 0.9 then 1 else out2"
				}

			}
, 			{
				"box" : 				{
					"id" : "obj-24",
					"maxclass" : "message",
					"numinlets" : 2,
					"numoutlets" : 1,
					"outlettype" : [ "" ],
					"patching_rect" : [ 1020.0, 224.5, 60.0, 22.0 ],
					"style" : "",
					"text" : "0.015748"
				}

			}
, 			{
				"box" : 				{
					"id" : "obj-23",
					"linecount" : 2,
					"maxclass" : "message",
					"numinlets" : 2,
					"numoutlets" : 1,
					"outlettype" : [ "" ],
					"patching_rect" : [ 964.0, 224.5, 50.0, 35.0 ],
					"style" : "",
					"text" : "-0.023622"
				}

			}
, 			{
				"box" : 				{
					"id" : "obj-22",
					"linecount" : 2,
					"maxclass" : "message",
					"numinlets" : 2,
					"numoutlets" : 1,
					"outlettype" : [ "" ],
					"patching_rect" : [ 909.0, 224.5, 50.0, 35.0 ],
					"style" : "",
					"text" : "-0.110236"
				}

			}
, 			{
				"box" : 				{
					"id" : "obj-21",
					"linecount" : 2,
					"maxclass" : "message",
					"numinlets" : 2,
					"numoutlets" : 1,
					"outlettype" : [ "" ],
					"patching_rect" : [ 857.0, 224.5, 50.0, 35.0 ],
					"style" : "",
					"text" : "-0.023622"
				}

			}
, 			{
				"box" : 				{
					"id" : "obj-20",
					"maxclass" : "message",
					"numinlets" : 2,
					"numoutlets" : 1,
					"outlettype" : [ "" ],
					"patching_rect" : [ 803.0, 224.5, 64.0, 22.0 ],
					"style" : "",
					"text" : "-0.031496"
				}

			}
, 			{
				"box" : 				{
					"hidden" : 1,
					"id" : "obj-19",
					"maxclass" : "newobj",
					"numinlets" : 1,
					"numoutlets" : 5,
					"outlettype" : [ "float", "float", "float", "float", "float" ],
					"patching_rect" : [ 830.5, 165.0, 116.0, 22.0 ],
					"style" : "",
					"text" : "unpack 0. 0. 0. 0. 0."
				}

			}
, 			{
				"box" : 				{
					"id" : "obj-17",
					"maxclass" : "comment",
					"numinlets" : 1,
					"numoutlets" : 0,
					"patching_rect" : [ 564.5, 152.0, 150.0, 20.0 ],
					"style" : "",
					"text" : "quatern"
				}

			}
, 			{
				"box" : 				{
					"id" : "obj-16",
					"linecount" : 2,
					"maxclass" : "message",
					"numinlets" : 2,
					"numoutlets" : 1,
					"outlettype" : [ "" ],
					"patching_rect" : [ 716.5, 224.5, 50.0, 35.0 ],
					"style" : "",
					"text" : "-0.756531"
				}

			}
, 			{
				"box" : 				{
					"id" : "obj-15",
					"linecount" : 2,
					"maxclass" : "message",
					"numinlets" : 2,
					"numoutlets" : 1,
					"outlettype" : [ "" ],
					"patching_rect" : [ 664.5, 224.5, 50.0, 35.0 ],
					"style" : "",
					"text" : "0.403625"
				}

			}
, 			{
				"box" : 				{
					"id" : "obj-14",
					"linecount" : 2,
					"maxclass" : "message",
					"numinlets" : 2,
					"numoutlets" : 1,
					"outlettype" : [ "" ],
					"patching_rect" : [ 612.5, 224.5, 50.0, 35.0 ],
					"style" : "",
					"text" : "0.015869"
				}

			}
, 			{
				"box" : 				{
					"id" : "obj-13",
					"linecount" : 2,
					"maxclass" : "message",
					"numinlets" : 2,
					"numoutlets" : 1,
					"outlettype" : [ "" ],
					"patching_rect" : [ 560.0, 224.5, 50.0, 35.0 ],
					"style" : "",
					"text" : "-0.514343"
				}

			}
, 			{
				"box" : 				{
					"id" : "obj-12",
					"maxclass" : "newobj",
					"numinlets" : 1,
					"numoutlets" : 4,
					"outlettype" : [ "float", "float", "float", "float" ],
					"patching_rect" : [ 586.0, 174.0, 103.0, 22.0 ],
					"style" : "",
					"text" : "unpack 0. 0. 0. 0."
				}

			}
, 			{
				"box" : 				{
					"id" : "obj-11",
					"maxclass" : "comment",
					"numinlets" : 1,
					"numoutlets" : 0,
					"patching_rect" : [ 318.75, 168.0, 150.0, 20.0 ],
					"style" : "",
					"text" : "gyro XYZ"
				}

			}
, 			{
				"box" : 				{
					"id" : "obj-10",
					"maxclass" : "comment",
					"numinlets" : 1,
					"numoutlets" : 0,
					"patching_rect" : [ 68.0, 165.0, 150.0, 20.0 ],
					"style" : "",
					"text" : "acc XYZ"
				}

			}
, 			{
				"box" : 				{
					"id" : "obj-6",
					"maxclass" : "message",
					"numinlets" : 2,
					"numoutlets" : 1,
					"outlettype" : [ "" ],
					"patching_rect" : [ 450.75, 231.0, 84.0, 22.0 ],
					"style" : "",
					"text" : "0.75"
				}

			}
, 			{
				"box" : 				{
					"id" : "obj-7",
					"maxclass" : "message",
					"numinlets" : 2,
					"numoutlets" : 1,
					"outlettype" : [ "" ],
					"patching_rect" : [ 364.75, 231.0, 84.0, 22.0 ],
					"style" : "",
					"text" : "-6.375"
				}

			}
, 			{
				"box" : 				{
					"id" : "obj-8",
					"maxclass" : "newobj",
					"numinlets" : 1,
					"numoutlets" : 3,
					"outlettype" : [ "float", "float", "float" ],
					"patching_rect" : [ 318.75, 190.0, 89.0, 22.0 ],
					"style" : "",
					"text" : "unpack 0. 0. 0."
				}

			}
, 			{
				"box" : 				{
					"id" : "obj-9",
					"maxclass" : "message",
					"numinlets" : 2,
					"numoutlets" : 1,
					"outlettype" : [ "" ],
					"patching_rect" : [ 282.25, 231.0, 84.0, 22.0 ],
					"style" : "",
					"text" : "3.8125"
				}

			}
, 			{
				"box" : 				{
					"id" : "obj-5",
					"maxclass" : "message",
					"numinlets" : 2,
					"numoutlets" : 1,
					"outlettype" : [ "" ],
					"patching_rect" : [ 183.0, 237.5, 84.0, 22.0 ],
					"style" : "",
					"text" : "0.416016"
				}

			}
, 			{
				"box" : 				{
					"id" : "obj-4",
					"maxclass" : "message",
					"numinlets" : 2,
					"numoutlets" : 1,
					"outlettype" : [ "" ],
					"patching_rect" : [ 97.0, 237.5, 84.0, 22.0 ],
					"style" : "",
					"text" : "0.723145"
				}

			}
, 			{
				"box" : 				{
					"id" : "obj-3",
					"maxclass" : "newobj",
					"numinlets" : 1,
					"numoutlets" : 3,
					"outlettype" : [ "float", "float", "float" ],
					"patching_rect" : [ 64.0, 190.0, 89.0, 22.0 ],
					"style" : "",
					"text" : "unpack 0. 0. 0."
				}

			}
, 			{
				"box" : 				{
					"id" : "obj-2",
					"maxclass" : "message",
					"numinlets" : 2,
					"numoutlets" : 1,
					"outlettype" : [ "" ],
					"patching_rect" : [ 14.5, 237.5, 84.0, 22.0 ],
					"style" : "",
					"text" : "-0.385254"
				}

			}
, 			{
				"box" : 				{
					"id" : "obj-35",
					"maxclass" : "message",
					"numinlets" : 2,
					"numoutlets" : 1,
					"outlettype" : [ "" ],
					"patching_rect" : [ 235.5, 74.0, 64.0, 22.0 ],
					"style" : "",
					"text" : "stream $1"
				}

			}
, 			{
				"box" : 				{
					"id" : "obj-36",
					"maxclass" : "toggle",
					"numinlets" : 1,
					"numoutlets" : 1,
					"outlettype" : [ "int" ],
					"parameter_enable" : 0,
					"patching_rect" : [ 235.5, 44.0, 24.0, 24.0 ],
					"style" : ""
				}

			}
, 			{
				"box" : 				{
					"id" : "obj-51",
					"maxclass" : "message",
					"numinlets" : 2,
					"numoutlets" : 1,
					"outlettype" : [ "" ],
					"patching_rect" : [ 211.5, 11.0, 53.0, 22.0 ],
					"style" : "",
					"text" : "connect"
				}

			}
, 			{
				"box" : 				{
					"fontface" : 3,
					"id" : "obj-25",
					"maxclass" : "comment",
					"numinlets" : 1,
					"numoutlets" : 0,
					"patching_rect" : [ 274.5, 11.0, 201.0, 20.0 ],
					"style" : "",
					"text" : "1 : connect to your Myo armband"
				}

			}
, 			{
				"box" : 				{
					"id" : "obj-1",
					"maxclass" : "newobj",
					"numinlets" : 1,
					"numoutlets" : 6,
					"outlettype" : [ "", "", "", "", "", "" ],
					"patching_rect" : [ 327.5, 128.0, 71.5, 22.0 ],
					"style" : "",
					"text" : "myo"
				}

			}
 ],
		"lines" : [ 			{
				"patchline" : 				{
					"destination" : [ "obj-12", 0 ],
					"disabled" : 0,
					"hidden" : 0,
					"midpoints" : [ 358.0, 153.0, 549.0, 153.0, 549.0, 138.0, 595.5, 138.0 ],
					"source" : [ "obj-1", 2 ]
				}

			}
, 			{
				"patchline" : 				{
					"destination" : [ "obj-19", 0 ],
					"disabled" : 0,
					"hidden" : 0,
					"midpoints" : [ 368.5, 153.0, 549.0, 153.0, 549.0, 138.0, 840.0, 138.0 ],
					"source" : [ "obj-1", 3 ]
				}

			}
, 			{
				"patchline" : 				{
					"destination" : [ "obj-3", 0 ],
					"disabled" : 0,
					"hidden" : 0,
					"midpoints" : [ 337.0, 153.0, 228.0, 153.0, 228.0, 195.0, 153.0, 195.0, 153.0, 186.0, 73.5, 186.0 ],
					"source" : [ "obj-1", 0 ]
				}

			}
, 			{
				"patchline" : 				{
					"destination" : [ "obj-8", 0 ],
					"disabled" : 0,
					"hidden" : 0,
					"midpoints" : [ 347.5, 153.0, 315.0, 153.0, 315.0, 186.0, 328.25, 186.0 ],
					"source" : [ "obj-1", 1 ]
				}

			}
, 			{
				"patchline" : 				{
					"destination" : [ "obj-13", 1 ],
					"disabled" : 0,
					"hidden" : 0,
					"midpoints" : [ 595.5, 210.0, 600.5, 210.0 ],
					"source" : [ "obj-12", 0 ]
				}

			}
, 			{
				"patchline" : 				{
					"destination" : [ "obj-14", 1 ],
					"disabled" : 0,
					"hidden" : 0,
					"midpoints" : [ 623.5, 210.0, 653.0, 210.0 ],
					"source" : [ "obj-12", 1 ]
				}

			}
, 			{
				"patchline" : 				{
					"destination" : [ "obj-15", 1 ],
					"disabled" : 0,
					"hidden" : 0,
					"midpoints" : [ 651.5, 210.0, 705.0, 210.0 ],
					"source" : [ "obj-12", 2 ]
				}

			}
, 			{
				"patchline" : 				{
					"destination" : [ "obj-16", 1 ],
					"disabled" : 0,
					"hidden" : 0,
					"midpoints" : [ 679.5, 210.0, 757.0, 210.0 ],
					"source" : [ "obj-12", 3 ]
				}

			}
, 			{
				"patchline" : 				{
					"destination" : [ "obj-26", 0 ],
					"disabled" : 0,
					"hidden" : 0,
					"midpoints" : [ 32.5, 345.0, 24.0, 345.0 ],
					"source" : [ "obj-18", 0 ]
				}

			}
, 			{
				"patchline" : 				{
					"destination" : [ "obj-29", 1 ],
					"disabled" : 0,
					"hidden" : 0,
					"midpoints" : [ 32.5, 333.0, 158.5, 333.0 ],
					"source" : [ "obj-18", 0 ]
				}

			}
, 			{
				"patchline" : 				{
					"destination" : [ "obj-49", 0 ],
					"disabled" : 0,
					"hidden" : 0,
					"midpoints" : [ 169.5, 324.0, 105.0, 324.0, 105.0, 333.0, 73.5, 333.0 ],
					"source" : [ "obj-18", 1 ]
				}

			}
, 			{
				"patchline" : 				{
					"destination" : [ "obj-20", 1 ],
					"disabled" : 0,
					"hidden" : 0,
					"midpoints" : [ 840.0, 219.0, 857.5, 219.0 ],
					"source" : [ "obj-19", 0 ]
				}

			}
, 			{
				"patchline" : 				{
					"destination" : [ "obj-21", 1 ],
					"disabled" : 0,
					"hidden" : 0,
					"midpoints" : [ 864.25, 210.0, 897.5, 210.0 ],
					"source" : [ "obj-19", 1 ]
				}

			}
, 			{
				"patchline" : 				{
					"destination" : [ "obj-22", 1 ],
					"disabled" : 0,
					"hidden" : 0,
					"midpoints" : [ 888.5, 210.0, 949.5, 210.0 ],
					"source" : [ "obj-19", 2 ]
				}

			}
, 			{
				"patchline" : 				{
					"destination" : [ "obj-23", 1 ],
					"disabled" : 0,
					"hidden" : 0,
					"midpoints" : [ 912.75, 210.0, 1004.5, 210.0 ],
					"source" : [ "obj-19", 3 ]
				}

			}
, 			{
				"patchline" : 				{
					"destination" : [ "obj-24", 1 ],
					"disabled" : 0,
					"hidden" : 0,
					"midpoints" : [ 937.0, 210.0, 1070.5, 210.0 ],
					"source" : [ "obj-19", 4 ]
				}

			}
, 			{
				"patchline" : 				{
					"destination" : [ "obj-41", 0 ],
					"disabled" : 0,
					"hidden" : 0,
					"midpoints" : [ 24.0, 456.0, 32.0, 456.0 ],
					"source" : [ "obj-26", 0 ]
				}

			}
, 			{
				"patchline" : 				{
					"destination" : [ "obj-18", 0 ],
					"disabled" : 0,
					"hidden" : 0,
					"midpoints" : [ 83.5, 297.0, 32.5, 297.0 ],
					"source" : [ "obj-27", 0 ]
				}

			}
, 			{
				"patchline" : 				{
					"destination" : [ "obj-2", 1 ],
					"disabled" : 0,
					"hidden" : 0,
					"midpoints" : [ 73.5, 222.0, 89.0, 222.0 ],
					"source" : [ "obj-3", 0 ]
				}

			}
, 			{
				"patchline" : 				{
					"destination" : [ "obj-27", 0 ],
					"disabled" : 0,
					"hidden" : 0,
					"midpoints" : [ 73.5, 222.0, 0.0, 222.0, 0.0, 261.0, 83.5, 261.0 ],
					"source" : [ "obj-3", 0 ]
				}

			}
, 			{
				"patchline" : 				{
					"destination" : [ "obj-38", 0 ],
					"disabled" : 0,
					"hidden" : 0,
					"midpoints" : [ 108.5, 222.0, 267.0, 222.0, 267.0, 294.0, 205.5, 294.0 ],
					"source" : [ "obj-3", 1 ]
				}

			}
, 			{
				"patchline" : 				{
					"destination" : [ "obj-4", 1 ],
					"disabled" : 0,
					"hidden" : 0,
					"midpoints" : [ 108.5, 222.0, 171.5, 222.0 ],
					"source" : [ "obj-3", 1 ]
				}

			}
, 			{
				"patchline" : 				{
					"destination" : [ "obj-5", 1 ],
					"disabled" : 0,
					"hidden" : 0,
					"midpoints" : [ 143.5, 222.0, 257.5, 222.0 ],
					"source" : [ "obj-3", 2 ]
				}

			}
, 			{
				"patchline" : 				{
					"destination" : [ "obj-49", 0 ],
					"disabled" : 0,
					"hidden" : 0,
					"midpoints" : [ 117.300003, 498.0, 141.0, 498.0, 141.0, 372.0, 102.0, 372.0, 102.0, 342.0, 73.5, 342.0 ],
					"source" : [ "obj-31", 0 ]
				}

			}
, 			{
				"patchline" : 				{
					"destination" : [ "obj-1", 0 ],
					"disabled" : 0,
					"hidden" : 0,
					"midpoints" : [ 245.0, 114.0, 337.0, 114.0 ],
					"source" : [ "obj-35", 0 ]
				}

			}
, 			{
				"patchline" : 				{
					"destination" : [ "obj-35", 0 ],
					"disabled" : 0,
					"hidden" : 0,
					"midpoints" : [ 245.0, 69.0, 245.0, 69.0 ],
					"source" : [ "obj-36", 0 ]
				}

			}
, 			{
				"patchline" : 				{
					"destination" : [ "obj-50", 0 ],
					"disabled" : 0,
					"hidden" : 0,
					"source" : [ "obj-38", 1 ]
				}

			}
, 			{
				"patchline" : 				{
					"destination" : [ "obj-59", 0 ],
					"disabled" : 0,
					"hidden" : 0,
					"source" : [ "obj-38", 0 ]
				}

			}
, 			{
				"patchline" : 				{
					"destination" : [ "obj-31", 0 ],
					"disabled" : 0,
					"hidden" : 0,
					"midpoints" : [ 72.0, 492.0, 93.0, 492.0, 93.0, 468.0, 117.300003, 468.0 ],
					"source" : [ "obj-41", 2 ]
				}

			}
, 			{
				"patchline" : 				{
					"destination" : [ "obj-45", 1 ],
					"disabled" : 0,
					"hidden" : 0,
					"midpoints" : [ 52.0, 501.0, 59.0, 501.0 ],
					"source" : [ "obj-41", 1 ]
				}

			}
, 			{
				"patchline" : 				{
					"destination" : [ "obj-45", 0 ],
					"disabled" : 0,
					"hidden" : 0,
					"midpoints" : [ 32.0, 501.0, 24.0, 501.0 ],
					"source" : [ "obj-41", 0 ]
				}

			}
, 			{
				"patchline" : 				{
					"destination" : [ "obj-42", 0 ],
					"disabled" : 0,
					"hidden" : 0,
					"midpoints" : [ 122.5, 693.0, 195.0, 693.0, 195.0, 660.0, 219.0, 660.0 ],
					"source" : [ "obj-43", 0 ]
				}

			}
, 			{
				"patchline" : 				{
					"destination" : [ "obj-42", 0 ],
					"disabled" : 0,
					"hidden" : 0,
					"midpoints" : [ 24.0, 663.0, 99.0, 663.0, 99.0, 651.0, 219.0, 651.0 ],
					"source" : [ "obj-45", 0 ]
				}

			}
, 			{
				"patchline" : 				{
					"destination" : [ "obj-41", 0 ],
					"disabled" : 0,
					"hidden" : 0,
					"midpoints" : [ 44.0, 456.0, 32.0, 456.0 ],
					"source" : [ "obj-46", 0 ]
				}

			}
, 			{
				"patchline" : 				{
					"destination" : [ "obj-46", 0 ],
					"disabled" : 0,
					"hidden" : 0,
					"midpoints" : [ 73.5, 150.0, 0.0, 150.0, 0.0, 408.0, 44.0, 408.0 ],
					"source" : [ "obj-47", 0 ]
				}

			}
, 			{
				"patchline" : 				{
					"destination" : [ "obj-53", 0 ],
					"disabled" : 0,
					"hidden" : 0,
					"midpoints" : [ 73.5, 150.0, 0.0, 150.0, 0.0, 333.0, 105.0, 333.0, 105.0, 408.0, 225.5, 408.0 ],
					"source" : [ "obj-47", 0 ]
				}

			}
, 			{
				"patchline" : 				{
					"destination" : [ "obj-41", 0 ],
					"disabled" : 0,
					"hidden" : 0,
					"midpoints" : [ 70.75, 405.0, 21.0, 405.0, 21.0, 456.0, 32.0, 456.0 ],
					"source" : [ "obj-48", 0 ]
				}

			}
, 			{
				"patchline" : 				{
					"destination" : [ "obj-48", 0 ],
					"disabled" : 0,
					"hidden" : 0,
					"midpoints" : [ 73.5, 375.0, 70.75, 375.0 ],
					"source" : [ "obj-49", 0 ]
				}

			}
, 			{
				"patchline" : 				{
					"destination" : [ "obj-52", 0 ],
					"disabled" : 0,
					"hidden" : 0,
					"midpoints" : [ 255.0, 375.0, 252.25, 375.0 ],
					"source" : [ "obj-50", 0 ]
				}

			}
, 			{
				"patchline" : 				{
					"destination" : [ "obj-1", 0 ],
					"disabled" : 0,
					"hidden" : 0,
					"midpoints" : [ 221.0, 114.0, 337.0, 114.0 ],
					"source" : [ "obj-51", 0 ]
				}

			}
, 			{
				"patchline" : 				{
					"destination" : [ "obj-55", 0 ],
					"disabled" : 0,
					"hidden" : 0,
					"midpoints" : [ 252.25, 405.0, 202.5, 405.0, 202.5, 456.0, 213.5, 456.0 ],
					"source" : [ "obj-52", 0 ]
				}

			}
, 			{
				"patchline" : 				{
					"destination" : [ "obj-55", 0 ],
					"disabled" : 0,
					"hidden" : 0,
					"midpoints" : [ 225.5, 456.0, 213.5, 456.0 ],
					"source" : [ "obj-53", 0 ]
				}

			}
, 			{
				"patchline" : 				{
					"destination" : [ "obj-42", 1 ],
					"disabled" : 0,
					"hidden" : 0,
					"source" : [ "obj-54", 0 ]
				}

			}
, 			{
				"patchline" : 				{
					"destination" : [ "obj-54", 1 ],
					"disabled" : 0,
					"hidden" : 0,
					"midpoints" : [ 233.5, 501.0, 240.5, 501.0 ],
					"source" : [ "obj-55", 1 ]
				}

			}
, 			{
				"patchline" : 				{
					"destination" : [ "obj-54", 0 ],
					"disabled" : 0,
					"hidden" : 0,
					"midpoints" : [ 213.5, 501.0, 205.5, 501.0 ],
					"source" : [ "obj-55", 0 ]
				}

			}
, 			{
				"patchline" : 				{
					"destination" : [ "obj-56", 0 ],
					"disabled" : 0,
					"hidden" : 0,
					"midpoints" : [ 253.5, 492.0, 274.5, 492.0, 274.5, 468.0, 298.799988, 468.0 ],
					"source" : [ "obj-55", 2 ]
				}

			}
, 			{
				"patchline" : 				{
					"destination" : [ "obj-50", 0 ],
					"disabled" : 0,
					"hidden" : 0,
					"midpoints" : [ 298.799988, 498.0, 322.5, 498.0, 322.5, 372.0, 283.5, 372.0, 283.5, 342.0, 255.0, 342.0 ],
					"source" : [ "obj-56", 0 ]
				}

			}
, 			{
				"patchline" : 				{
					"destination" : [ "obj-55", 0 ],
					"disabled" : 0,
					"hidden" : 0,
					"source" : [ "obj-59", 0 ]
				}

			}
, 			{
				"patchline" : 				{
					"destination" : [ "obj-6", 1 ],
					"disabled" : 0,
					"hidden" : 0,
					"midpoints" : [ 398.25, 213.0, 525.25, 213.0 ],
					"source" : [ "obj-8", 2 ]
				}

			}
, 			{
				"patchline" : 				{
					"destination" : [ "obj-7", 1 ],
					"disabled" : 0,
					"hidden" : 0,
					"midpoints" : [ 363.25, 213.0, 439.25, 213.0 ],
					"source" : [ "obj-8", 1 ]
				}

			}
, 			{
				"patchline" : 				{
					"destination" : [ "obj-9", 1 ],
					"disabled" : 0,
					"hidden" : 0,
					"midpoints" : [ 328.25, 225.0, 356.75, 225.0 ],
					"source" : [ "obj-8", 0 ]
				}

			}
 ],
		"parameters" : 		{
			"obj-45" : [ "live.gain~", "live.gain~", 0 ],
			"obj-54" : [ "live.gain~[1]", "live.gain~", 0 ]
		}
,
		"dependency_cache" : [ 			{
				"name" : "myo.mxo",
				"type" : "iLaX"
			}
 ],
		"embedsnapshot" : 0
	}

}
